<svg xmlns="http://www.w3.org/2000/svg" width="1em" height="1em" fill="none" viewBox="0 0 32 32" class=" " stroke="none" style="height: 32px; width: 32px;"><path fill="#FFD232" d="M15 9h1.5l5-2 5-.5v14.913a1 1 0 0 1-1.083.997L20.5 22 15 23V9Z"></path><path stroke="#000" stroke-linecap="round" stroke-linejoin="round" stroke-width="1.5" d="M16 8.056A11.956 11.956 0 0 0 8 5c-1.403 0-2.75.24-4 .683v19A11.983 11.983 0 0 1 8 24c3.073 0 5.877 1.156 8 3.056m0-19A11.955 11.955 0 0 1 24 5c1.403 0 2.75.24 4 .683v19A11.983 11.983 0 0 0 24 24a11.956 11.956 0 0 0-8 3.056m0-19v19"></path></svg>