<svg xmlns="http://www.w3.org/2000/svg" width="1em" height="1em" fill="none" viewBox="0 0 33 32" class=" " stroke="none" style="height: 32px; width: 32px;"><g clip-path="url(#account_overview_order_svg__a)"><path fill="#FFD232" d="m14.333 8 3.5 2.5 4-4.5 5.5.5V24a1 1 0 0 1-1 1h-11a1 1 0 0 1-1-1V8Z"></path><path fill="#292D35" d="m31.28 8.652-6.47-3.527A1 1 0 0 0 24.332 5h-4a1 1 0 0 0-1 1 3 3 0 0 1-6 0 1 1 0 0 0-1-1h-4a1 1 0 0 0-.48.125l-6.47 3.527A1.97 1.97 0 0 0 .56 11.31l2.409 4.601A2.047 2.047 0 0 0 4.79 17h2.542v10a2 2 0 0 0 2 2h14a2 2 0 0 0 2-2V17h2.542a2.047 2.047 0 0 0 1.823-1.089l2.408-4.601a1.97 1.97 0 0 0-.825-2.658ZM4.79 15a.078.078 0 0 1-.05-.016l-2.397-4.576 4.989-2.723V15H4.79Zm18.542 12h-14V7h2.1a5 5 0 0 0 9.797 0h2.103v20Zm4.593-12.018a.069.069 0 0 1-.05.018h-2.543V7.685l4.99 2.723-2.397 4.575Z"></path></g><defs><clipPath id="account_overview_order_svg__a"><path fill="#fff" d="M.333 0h32v32h-32z"></path></clipPath></defs></svg>