<svg xmlns="http://www.w3.org/2000/svg" width="1em" height="1em" fill="none" viewBox="0 0 32 32" class=" " stroke="none" style="height: 32px; width: 32px;"><path stroke="#292D35" stroke-linecap="round" stroke-linejoin="round" stroke-width="1.5" d="M3 25a80.096 80.096 0 0 1 21.063 2.801c.969.264 1.937-.456 1.937-1.461V25M5 6v1a1 1 0 0 1-1 1H3m0 0v-.5A1.5 1.5 0 0 1 4.5 6H27M3 8v12M27 6v1a1 1 0 0 0 1 1h1m-2-2h.5A1.5 1.5 0 0 1 29 7.5v13a1.5 1.5 0 0 1-1.5 1.5H27M3 20v.5A1.5 1.5 0 0 0 4.5 22H5m-2-2h1a1 1 0 0 1 1 1v1m22 0v-1a1 1 0 0 1 1-1h1m-2 2H5m15-8a4 4 0 1 1-8 0 4 4 0 0 1 8 0Zm4 0h.01v.01H24V14ZM8 14h.01v.01H8V14Z"></path></svg>