<svg xmlns="http://www.w3.org/2000/svg" width="1em" height="1em" fill="none" viewBox="0 0 24 24" class=" " stroke="none" style="height: 24px; width: 24px;"><path fill="url(#membership_early_access_svg__a)" d="M6.382 5.968A8.962 8.962 0 0 1 12 4c2.125 0 4.078.736 5.618 1.968l1.453-1.453 1.414 1.414-1.453 1.453A9 9 0 1 1 3 13c0-2.125.736-4.078 1.968-5.618L3.515 5.93l1.414-1.414 1.453 1.453ZM12 20a7 7 0 1 0 0-14 7 7 0 0 0 0 14Zm1-8h3l-5 6.5V14H8l5-6.505V12ZM8 1h8v2H8V1Z"></path><defs><linearGradient id="membership_early_access_svg__a" x1="5.425" x2="16.45" y1="6.285" y2="17.303" gradientUnits="userSpaceOnUse"><stop stop-color="#EDC367"></stop><stop offset="0.59" stop-color="#CFA346"></stop><stop offset="1" stop-color="#D7AC50"></stop></linearGradient></defs></svg>