<svg xmlns="http://www.w3.org/2000/svg" width="1em" height="1em" fill="none" viewBox="0 0 18 19" class=" " stroke="none" style="font-size: 20px;"><path stroke="#292D35" stroke-linecap="round" stroke-linejoin="round" d="M13 7.857 5 3.286m5.134-1.638 5.714 3.265A2.286 2.286 0 0 1 17 6.898v5.347a2.286 2.286 0 0 1-1.152 1.985l-5.714 3.265a2.286 2.286 0 0 1-2.268 0L2.152 14.23A2.286 2.286 0 0 1 1 12.245V6.898a2.286 2.286 0 0 1 1.152-1.985l5.714-3.265a2.286 2.286 0 0 1 2.268 0Z"></path><path stroke="#292D35" stroke-linecap="round" stroke-linejoin="round" d="M1.571 6.143 7.917 9.56a2.286 2.286 0 0 0 2.166 0l6.346-3.417m-7.429 4v7.429"></path></svg>