<svg xmlns="http://www.w3.org/2000/svg" width="1em" height="1em" fill="none" viewBox="0 0 20 20" class=" " stroke="none" style="font-size: 20px;"><path stroke="#292D35" stroke-linecap="round" stroke-linejoin="round" stroke-width="0.8" d="M1.875 15.625a50.062 50.062 0 0 1 13.164 1.75.955.955 0 0 0 1.211-.913v-.837M3.125 3.75v.625A.625.625 0 0 1 2.5 5h-.625m0 0v-.313c0-.517.42-.937.938-.937h14.062M1.875 5v7.5m15-8.75v.625c0 .345.28.625.625.625h.625m-1.25-1.25h.313c.517 0 .937.42.937.938v8.125c0 .517-.42.937-.938.937h-.312m-15-1.25v.313a.937.937 0 0 0 .938.937h.312m-1.25-1.25H2.5a.625.625 0 0 1 .625.625v.625m13.75 0v-.625a.624.624 0 0 1 .625-.625h.625m-1.25 1.25H3.125m9.375-5a2.5 2.5 0 1 1-5 0 2.5 2.5 0 0 1 5 0Zm2.5 0h.007v.007H15V8.75Zm-10 0h.007v.007H5V8.75Z"></path></svg>