<svg xmlns="http://www.w3.org/2000/svg" width="1em" height="1em" fill="none" viewBox="0 0 20 20" class=" " stroke="none" style="font-size: 20px;"><path stroke="#292D35" stroke-linecap="round" stroke-linejoin="round" stroke-width="0.8" d="M17.5 10a1.875 1.875 0 0 0-1.875-1.875H12.5a2.5 2.5 0 0 1-5 0H4.375A1.875 1.875 0 0 0 2.5 10m15 0v5a1.875 1.875 0 0 1-1.875 1.875H4.375A1.875 1.875 0 0 1 2.5 15v-5m15 0V7.5M2.5 10V7.5m15 0a1.875 1.875 0 0 0-1.875-1.875H4.375A1.875 1.875 0 0 0 2.5 7.5m15 0V5a1.875 1.875 0 0 0-1.875-1.875H4.375A1.875 1.875 0 0 0 2.5 5v2.5"></path></svg>